<svg height='300px' width='300px'  fill="#000000" xmlns="http://www.w3.org/2000/svg" xmlns:xlink="http://www.w3.org/1999/xlink" version="1.1" x="0px" y="0px" viewBox="0 0 110 110" enable-background="new 0 0 110 110" xml:space="preserve"><g><rect x="22.358" y="71.096" width="78.398" height="4.655"></rect><rect x="86.313" y="76.751" width="10.242" height="11.731"></rect><rect x="26.56" y="76.751" width="10.242" height="11.731"></rect><path d="M23.239,66.309l0.984-2.044l5.554-0.048v5.881h3.725v-5.693h5.757l0.909,1.856l1.368-0.571l-0.45-1.285h47.79v5.693h5.035   V63.73c0.528-0.596,0.859-1.37,0.859-2.228c0-1.226-0.663-2.291-1.643-2.882L40.869,24.538l-0.225-0.221l0.768-2.236l-1.371-0.563   l-0.986,2.045l-14.903,0.13l-1.04-2.125l-1.369,0.57l0.751,2.144L12.043,34.912l-2.236-0.769l-0.563,1.37l2.045,0.986l0.129,14.902   l-2.125,1.04l0.571,1.367l2.143-0.749l10.63,10.447l-0.768,2.237L23.239,66.309z M29.777,62.217l-4.585,0.04l4.585-9.512V62.217z    M31.64,46.933c-1.668,0-3.02-1.352-3.02-3.02c0-1.667,1.352-3.02,3.02-3.02c1.667,0,3.02,1.353,3.02,3.02   C34.659,45.581,33.307,46.933,31.64,46.933z M33.502,62.184v-9.551l4.652,9.511L33.502,62.184z M40.052,61.441l-4.909-14.045   l13.993,4.802L40.052,61.441z M36.577,43.899l13.291-6.501l0.112,12.96L36.577,43.899z M90.309,60.664   c0.015-0.02,0.029-0.037,0.045-0.055c0.078-0.092,0.165-0.176,0.265-0.244l0,0c0.099-0.067,0.209-0.117,0.323-0.157   c0.027-0.01,0.055-0.018,0.083-0.025c0.118-0.033,0.24-0.057,0.369-0.057c0.108,0,0.212,0.016,0.313,0.039   c0.006,0.002,0.012,0.004,0.018,0.006c0.124,0.03,0.239,0.079,0.348,0.141c0,0,0.001,0,0.001,0.001   c0.13,0.073,0.245,0.166,0.344,0.277c0.006,0.006,0.01,0.012,0.016,0.018c0.208,0.241,0.338,0.552,0.338,0.896   c0,0.76-0.615,1.376-1.377,1.376s-1.377-0.616-1.377-1.376C90.017,61.186,90.128,60.896,90.309,60.664z M89.555,58.678   c-0.924,0.603-1.538,1.642-1.538,2.825c0,0.314,0.057,0.612,0.138,0.901H41.908l9.325-9.487l2.238,0.769l0.564-1.374l-2.047-0.985   L51.86,36.424l2.041-0.999L89.555,58.678z M52.324,34.396l-1.054,0.368l-3.188-3.135L52.324,34.396z M39.923,26.416l9.244,9.084   l-14.046,4.909L39.923,26.416z M38.085,25.571L32.42,37.32h-1.604l-5.692-11.637L38.085,25.571z M23.227,26.387l4.909,14.046   l-13.994-4.802L23.227,26.387z M13.297,37.468l13.4,6.46l-13.288,6.5L13.297,37.468z M14.11,52.325l14.045-4.908L23.354,61.41   L14.11,52.325z"></path></g></svg>